<svg width="100%" viewBox="0 0 700 590" xmlns="http://www.w3.org/2000/svg" style="font-family: Arial, Helvetica, sans-serif; background: white;">
<defs>
  <marker id="arr" viewBox="0 0 10 10" refX="9" refY="5" markerWidth="6" markerHeight="6" orient="auto-start-reverse">
    <path d="M1 1L9 5L1 9" fill="none" stroke="#888" stroke-width="1.5" stroke-linecap="round"/>
  </marker>
  <marker id="arrd2" viewBox="0 0 10 10" refX="9" refY="5" markerWidth="6" markerHeight="6" orient="auto-start-reverse">
    <path d="M1 1L9 5L1 9" fill="none" stroke="#aaa" stroke-width="1.5" stroke-linecap="round"/>
  </marker>
</defs>

<!-- Layer 1: App.tsx shell -->
<rect x="160" y="20" width="380" height="46" rx="8" fill="#E6F1FB" stroke="#185FA5" stroke-width="0.8"/>
<text x="350" y="37" text-anchor="middle" dominant-baseline="central" font-size="13" font-weight="600" fill="#0C447C">App.tsx</text>
<text x="350" y="52" text-anchor="middle" dominant-baseline="central" font-size="11" fill="#185FA5">ThemeProvider + BrowserRouter + ErrorBoundary</text>

<!-- Arrow App -> DashboardProvider -->
<line x1="350" y1="66" x2="350" y2="86" stroke="#888" stroke-width="1" marker-end="url(#arr)"/>

<!-- Layer 2: DashboardProvider container (dashed) -->
<rect x="110" y="90" width="480" height="56" rx="10" fill="#E6F1FB" stroke="#185FA5" stroke-width="0.6" stroke-dasharray="6 3"/>
<text x="130" y="108" font-size="12" font-weight="600" fill="#0C447C">DashboardProvider</text>
<text x="130" y="122" font-size="10" fill="#185FA5">React Context — wraps all routes</text>

<!-- Hook inside provider -->
<rect x="390" y="98" width="185" height="38" rx="6" fill="#FAECE7" stroke="#993C1D" stroke-width="0.6"/>
<text x="482" y="112" text-anchor="middle" dominant-baseline="central" font-size="11" font-weight="600" fill="#712B13">useDashboardData</text>
<text x="482" y="126" text-anchor="middle" dominant-baseline="central" font-size="10" fill="#993C1D">custom hook (state + useMemo)</text>

<!-- Arrow Provider -> MainLayout -->
<line x1="350" y1="146" x2="350" y2="168" stroke="#888" stroke-width="1" marker-end="url(#arr)"/>

<!-- Layer 3: MainLayout -->
<rect x="260" y="172" width="150" height="36" rx="6" fill="#E1F5EE" stroke="#0F6E56" stroke-width="0.8"/>
<text x="335" y="190" text-anchor="middle" dominant-baseline="central" font-size="12" font-weight="600" fill="#085041">MainLayout</text>

<!-- Layout children: Header -->
<line x1="410" y1="190" x2="445" y2="190" stroke="#888" stroke-width="1" marker-end="url(#arr)"/>
<rect x="450" y="176" width="80" height="28" rx="5" fill="#E1F5EE" stroke="#0F6E56" stroke-width="0.5"/>
<text x="490" y="190" text-anchor="middle" dominant-baseline="central" font-size="11" fill="#085041">Header</text>

<!-- Layout children: Sidebar (L-shaped route) -->
<path d="M530 190 L555 190 L555 210 L582 210" fill="none" stroke="#888" stroke-width="1" marker-end="url(#arr)"/>
<rect x="542" y="196" width="80" height="28" rx="5" fill="#E1F5EE" stroke="#0F6E56" stroke-width="0.5"/>
<text x="582" y="210" text-anchor="middle" dominant-baseline="central" font-size="11" fill="#085041">Sidebar</text>

<!-- Arrow MainLayout -> Route pages -->
<line x1="335" y1="208" x2="335" y2="230" stroke="#888" stroke-width="1" marker-end="url(#arr)"/>
<text x="348" y="224" font-size="10" fill="#888">routes</text>

<!-- Layer 4: Route pages (only 2 + NotFound) -->
<rect x="60" y="236" width="165" height="42" rx="6" fill="#EEEDFE" stroke="#534AB7" stroke-width="0.8"/>
<text x="142" y="250" text-anchor="middle" dominant-baseline="central" font-size="12" font-weight="600" fill="#3C3489">DashboardPage</text>
<text x="142" y="265" text-anchor="middle" dominant-baseline="central" font-size="10" fill="#534AB7">/</text>

<rect x="260" y="236" width="180" height="42" rx="6" fill="#EEEDFE" stroke="#534AB7" stroke-width="0.8"/>
<text x="350" y="250" text-anchor="middle" dominant-baseline="central" font-size="12" font-weight="600" fill="#3C3489">ContingentDetailPage</text>
<text x="350" y="265" text-anchor="middle" dominant-baseline="central" font-size="10" fill="#534AB7">/contingent/:id</text>

<rect x="475" y="236" width="140" height="42" rx="6" fill="#F1EFE8" stroke="#B4B2A9" stroke-width="0.6"/>
<text x="545" y="250" text-anchor="middle" dominant-baseline="central" font-size="12" font-weight="500" fill="#5F5E5A">NotFoundPage</text>
<text x="545" y="265" text-anchor="middle" dominant-baseline="central" font-size="10" fill="#888">/*</text>

<!-- Arrows DashboardPage -> children -->
<line x1="85" y1="278" x2="85" y2="308" stroke="#888" stroke-width="1" marker-end="url(#arr)"/>
<line x1="120" y1="278" x2="222" y2="308" stroke="#888" stroke-width="1" marker-end="url(#arr)"/>
<line x1="155" y1="278" x2="360" y2="308" stroke="#888" stroke-width="1" marker-end="url(#arr)"/>
<line x1="175" y1="278" x2="500" y2="308" stroke="#888" stroke-width="1" marker-end="url(#arr)"/>

<!-- Layer 5: Dashboard children -->
<rect x="30" y="312" width="130" height="30" rx="5" fill="#EEEDFE" stroke="#534AB7" stroke-width="0.5"/>
<text x="95" y="327" text-anchor="middle" dominant-baseline="central" font-size="10" font-weight="500" fill="#3C3489">ContingentSelector</text>

<rect x="175" y="312" width="130" height="30" rx="5" fill="#EEEDFE" stroke="#534AB7" stroke-width="0.5"/>
<text x="240" y="327" text-anchor="middle" dominant-baseline="central" font-size="10" font-weight="500" fill="#3C3489">KpiOverviewPanel</text>

<rect x="320" y="312" width="120" height="30" rx="5" fill="#EEEDFE" stroke="#534AB7" stroke-width="0.5"/>
<text x="380" y="327" text-anchor="middle" dominant-baseline="central" font-size="10" font-weight="500" fill="#3C3489">KpiChartPanel</text>

<rect x="455" y="312" width="150" height="30" rx="5" fill="#FAECE7" stroke="#993C1D" stroke-width="0.5"/>
<text x="530" y="327" text-anchor="middle" dominant-baseline="central" font-size="10" font-weight="500" fill="#712B13">DecisionSupportCard</text>

<!-- Chart sub-components as boxes -->
<line x1="350" y1="342" x2="350" y2="356" stroke="#888" stroke-width="0.8" marker-end="url(#arr)"/>
<line x1="380" y1="342" x2="470" y2="356" stroke="#888" stroke-width="0.8" marker-end="url(#arr)"/>
<line x1="395" y1="342" x2="590" y2="356" stroke="#888" stroke-width="0.8" marker-end="url(#arr)"/>

<rect x="290" y="358" width="120" height="26" rx="4" fill="#EEEDFE" stroke="#534AB7" stroke-width="0.4"/>
<text x="350" y="371" text-anchor="middle" dominant-baseline="central" font-size="9" font-weight="500" fill="#3C3489">TemperatureTrend</text>

<rect x="420" y="358" width="120" height="26" rx="4" fill="#EEEDFE" stroke="#534AB7" stroke-width="0.4"/>
<text x="480" y="371" text-anchor="middle" dominant-baseline="central" font-size="9" font-weight="500" fill="#3C3489">EnergyComparison</text>

<rect x="550" y="358" width="90" height="26" rx="4" fill="#EEEDFE" stroke="#534AB7" stroke-width="0.4"/>
<text x="595" y="371" text-anchor="middle" dominant-baseline="central" font-size="9" font-weight="500" fill="#3C3489">CopGauge</text>

<!-- common/ shared via dashed line -->
<rect x="30" y="358" width="100" height="26" rx="4" fill="#F1EFE8" stroke="#B4B2A9" stroke-width="0.4"/>
<text x="80" y="366" text-anchor="middle" dominant-baseline="central" font-size="9" font-weight="500" fill="#5F5E5A">common/</text>
<text x="80" y="378" text-anchor="middle" dominant-baseline="central" font-size="8" fill="#888">Spinner, EmptyState</text>
<line x1="130" y1="371" x2="170" y2="327" stroke="#aaa" stroke-width="0.6" stroke-dasharray="3 2"/>
<line x1="130" y1="371" x2="260" y2="257" stroke="#aaa" stroke-width="0.6" stroke-dasharray="3 2"/>

<!-- ═══ Separator ═══ -->
<line x1="30" y1="400" x2="670" y2="400" stroke="#ddd" stroke-width="0.5" stroke-dasharray="8 4"/>
<text x="350" y="416" text-anchor="middle" font-size="10" fill="#999" font-weight="500">SERVICE LAYER — consumed by useDashboardData hook</text>

<!-- Services pipeline -->
<rect x="18" y="434" width="105" height="38" rx="5" fill="#FAECE7" stroke="#993C1D" stroke-width="0.6"/>
<text x="70" y="447" text-anchor="middle" dominant-baseline="central" font-size="11" font-weight="600" fill="#712B13">config.ts</text>
<text x="70" y="461" text-anchor="middle" dominant-baseline="central" font-size="9" fill="#993C1D">env vars</text>

<line x1="123" y1="453" x2="137" y2="453" stroke="#888" stroke-width="1" marker-end="url(#arr)"/>

<rect x="141" y="434" width="105" height="38" rx="5" fill="#FAECE7" stroke="#993C1D" stroke-width="0.6"/>
<text x="193" y="447" text-anchor="middle" dominant-baseline="central" font-size="11" font-weight="600" fill="#712B13">hupieApi.ts</text>
<text x="193" y="461" text-anchor="middle" dominant-baseline="central" font-size="9" fill="#993C1D">Axios + SPARQL</text>

<line x1="246" y1="453" x2="260" y2="453" stroke="#888" stroke-width="1" marker-end="url(#arr)"/>

<rect x="264" y="434" width="110" height="38" rx="5" fill="#FAECE7" stroke="#993C1D" stroke-width="0.6"/>
<text x="319" y="447" text-anchor="middle" dominant-baseline="central" font-size="11" font-weight="600" fill="#712B13">dataMapper.ts</text>
<text x="319" y="461" text-anchor="middle" dominant-baseline="central" font-size="9" fill="#993C1D">raw JSON → typed</text>

<line x1="374" y1="453" x2="388" y2="453" stroke="#888" stroke-width="1" marker-end="url(#arr)"/>

<rect x="392" y="434" width="120" height="38" rx="5" fill="#FAECE7" stroke="#993C1D" stroke-width="0.6"/>
<text x="452" y="447" text-anchor="middle" dominant-baseline="central" font-size="11" font-weight="600" fill="#712B13">kpiAggregator.ts</text>
<text x="452" y="461" text-anchor="middle" dominant-baseline="central" font-size="9" fill="#993C1D">calculate KPIs</text>

<line x1="512" y1="453" x2="526" y2="453" stroke="#888" stroke-width="1" marker-end="url(#arr)"/>

<rect x="530" y="434" width="130" height="38" rx="5" fill="#FAECE7" stroke="#993C1D" stroke-width="0.6"/>
<text x="595" y="447" text-anchor="middle" dominant-baseline="central" font-size="11" font-weight="600" fill="#712B13">decisionEngine.ts</text>
<text x="595" y="461" text-anchor="middle" dominant-baseline="central" font-size="9" fill="#993C1D">score + recommend</text>

<!-- Feedback: services -> hook (left side L-shape) -->
<path d="M18 453 L8 453 L8 117 L108 117" fill="none" stroke="#aaa" stroke-width="1" stroke-dasharray="5 3" marker-end="url(#arrd2)"/>
<text x="14" y="290" font-size="10" fill="#aaa" writing-mode="tb">services feed into hook</text>

<!-- Helper services below pipeline -->
<line x1="193" y1="472" x2="193" y2="484" stroke="#bbb" stroke-width="0.5" stroke-dasharray="3 2"/>
<rect x="141" y="486" width="105" height="28" rx="5" fill="#F1EFE8" stroke="#B4B2A9" stroke-width="0.5"/>
<text x="193" y="500" text-anchor="middle" dominant-baseline="central" font-size="10" fill="#5F5E5A">sparqlQueries.ts</text>

<line x1="452" y1="472" x2="452" y2="484" stroke="#bbb" stroke-width="0.5" stroke-dasharray="3 2"/>
<rect x="392" y="486" width="120" height="28" rx="5" fill="#F1EFE8" stroke="#B4B2A9" stroke-width="0.5"/>
<text x="452" y="500" text-anchor="middle" dominant-baseline="central" font-size="10" fill="#5F5E5A">contingentService.ts</text>

<line x1="595" y1="472" x2="595" y2="484" stroke="#bbb" stroke-width="0.5" stroke-dasharray="3 2"/>
<rect x="540" y="486" width="120" height="28" rx="5" fill="#F1EFE8" stroke="#B4B2A9" stroke-width="0.5"/>
<text x="600" y="500" text-anchor="middle" dominant-baseline="central" font-size="10" fill="#5F5E5A">scoringConfig.ts</text>

<!-- Shared types bar -->
<rect x="30" y="530" width="640" height="24" rx="4" fill="#F8F8F6" stroke="#D0CFC9" stroke-width="0.5"/>
<text x="350" y="542" text-anchor="middle" dominant-baseline="central" font-size="10" fill="#888">Shared TypeScript interfaces: types/api.ts · types/heatpump.ts · types/units.ts · types/decision.ts</text>
<text x="350" y="558" text-anchor="middle" font-size="9" fill="#bbb">imported by all layers</text>

<!-- Legend -->
<g transform="translate(30, 570)">
  <rect x="0" y="0" width="10" height="10" rx="2" fill="#E6F1FB" stroke="#185FA5" stroke-width="0.5"/>
  <text x="14" y="9" font-size="10" fill="#888">Providers</text>
  <rect x="80" y="0" width="10" height="10" rx="2" fill="#E1F5EE" stroke="#0F6E56" stroke-width="0.5"/>
  <text x="94" y="9" font-size="10" fill="#888">Layout</text>
  <rect x="145" y="0" width="10" height="10" rx="2" fill="#EEEDFE" stroke="#534AB7" stroke-width="0.5"/>
  <text x="159" y="9" font-size="10" fill="#888">Pages + UI</text>
  <rect x="235" y="0" width="10" height="10" rx="2" fill="#FAECE7" stroke="#993C1D" stroke-width="0.5"/>
  <text x="249" y="9" font-size="10" fill="#888">Services + data</text>
  <rect x="350" y="0" width="10" height="10" rx="2" fill="#F1EFE8" stroke="#B4B2A9" stroke-width="0.5"/>
  <text x="364" y="9" font-size="10" fill="#888">Utility / shared</text>
  <line x1="450" y1="5" x2="475" y2="5" stroke="#888" stroke-width="1" marker-end="url(#arr)"/>
  <text x="480" y="9" font-size="10" fill="#888">Renders</text>
  <line x1="530" y1="5" x2="555" y2="5" stroke="#aaa" stroke-width="1" stroke-dasharray="4 3" marker-end="url(#arrd2)"/>
  <text x="560" y="9" font-size="10" fill="#888">Shared</text>
</g>
</svg>