<svg width="100%" viewBox="0 0 720 660" xmlns="http://www.w3.org/2000/svg" style="font-family: Arial, Helvetica, sans-serif; background: white;">
<defs>
  <marker id="arr" viewBox="0 0 10 10" refX="9" refY="5" markerWidth="6" markerHeight="6" orient="auto-start-reverse">
    <path d="M1 1L9 5L1 9" fill="none" stroke="#888" stroke-width="1.5" stroke-linecap="round"/>
  </marker>
  <marker id="arrd" viewBox="0 0 10 10" refX="9" refY="5" markerWidth="6" markerHeight="6" orient="auto-start-reverse">
    <path d="M1 1L9 5L1 9" fill="none" stroke="#aaa" stroke-width="1.5" stroke-linecap="round"/>
  </marker>
</defs>

<!-- Layer 1: App.tsx -->
<rect x="170" y="20" width="380" height="46" rx="8" fill="#E6F1FB" stroke="#185FA5" stroke-width="0.8"/>
<text x="360" y="37" text-anchor="middle" dominant-baseline="central" font-size="13" font-weight="600" fill="#0C447C">App.tsx</text>
<text x="360" y="52" text-anchor="middle" dominant-baseline="central" font-size="11" fill="#185FA5">ThemeProvider + BrowserRouter + ErrorBoundary</text>
<line x1="360" y1="66" x2="360" y2="86" stroke="#888" stroke-width="1" marker-end="url(#arr)"/>

<!-- Layer 2: DashboardProvider -->
<rect x="120" y="90" width="480" height="56" rx="10" fill="#E6F1FB" stroke="#185FA5" stroke-width="0.6" stroke-dasharray="6 3"/>
<text x="140" y="108" font-size="12" font-weight="600" fill="#0C447C">DashboardProvider</text>
<text x="140" y="122" font-size="10" fill="#185FA5">React Context — wraps all routes</text>
<rect x="400" y="98" width="185" height="38" rx="6" fill="#FAECE7" stroke="#993C1D" stroke-width="0.6"/>
<text x="492" y="112" text-anchor="middle" dominant-baseline="central" font-size="11" font-weight="600" fill="#712B13">useDashboardData</text>
<text x="492" y="126" text-anchor="middle" dominant-baseline="central" font-size="10" fill="#993C1D">custom hook (state + useMemo)</text>
<line x1="360" y1="146" x2="360" y2="168" stroke="#888" stroke-width="1" marker-end="url(#arr)"/>

<!-- Layer 3: MainLayout + Header + Sidebar -->
<rect x="240" y="172" width="150" height="36" rx="6" fill="#E1F5EE" stroke="#0F6E56" stroke-width="0.8"/>
<text x="315" y="190" text-anchor="middle" dominant-baseline="central" font-size="12" font-weight="600" fill="#085041">MainLayout</text>
<rect x="474" y="168" width="80" height="28" rx="5" fill="#E1F5EE" stroke="#0F6E56" stroke-width="0.5"/>
<text x="514" y="182" text-anchor="middle" dominant-baseline="central" font-size="11" fill="#085041">Header</text>
<rect x="574" y="168" width="80" height="28" rx="5" fill="#E1F5EE" stroke="#0F6E56" stroke-width="0.5"/>
<text x="614" y="182" text-anchor="middle" dominant-baseline="central" font-size="11" fill="#085041">Sidebar</text>
<line x1="390" y1="182" x2="472" y2="182" stroke="#888" stroke-width="1" marker-end="url(#arr)"/>
<path d="M390 192 L440 192 L440 200 L560 200 L560 186 L572 186" fill="none" stroke="#888" stroke-width="1" marker-end="url(#arr)"/>

<!-- MainLayout → route pages -->
<line x1="260" y1="208" x2="115" y2="240" stroke="#888" stroke-width="1" marker-end="url(#arr)"/>
<line x1="295" y1="208" x2="300" y2="240" stroke="#888" stroke-width="1" marker-end="url(#arr)"/>
<line x1="340" y1="208" x2="468" y2="240" stroke="#888" stroke-width="1" marker-end="url(#arr)"/>
<line x1="370" y1="208" x2="614" y2="240" stroke="#888" stroke-width="1" marker-end="url(#arr)"/>
<text x="315" y="228" text-anchor="middle" font-size="10" fill="#888">routes</text>

<!-- Layer 4: Route pages -->
<rect x="40" y="244" width="150" height="42" rx="6" fill="#EEEDFE" stroke="#534AB7" stroke-width="0.8"/>
<text x="115" y="258" text-anchor="middle" dominant-baseline="central" font-size="12" font-weight="600" fill="#3C3489">DashboardPage</text>
<text x="115" y="273" text-anchor="middle" dominant-baseline="central" font-size="10" fill="#534AB7">/</text>
<rect x="218" y="244" width="165" height="42" rx="6" fill="#EEEDFE" stroke="#534AB7" stroke-width="0.8"/>
<text x="300" y="258" text-anchor="middle" dominant-baseline="central" font-size="12" font-weight="600" fill="#3C3489">ContingentDetailPage</text>
<text x="300" y="273" text-anchor="middle" dominant-baseline="central" font-size="10" fill="#534AB7">/contingent/:id</text>
<rect x="411" y="244" width="115" height="42" rx="6" fill="#EEEDFE" stroke="#534AB7" stroke-width="0.8"/>
<text x="468" y="258" text-anchor="middle" dominant-baseline="central" font-size="12" font-weight="600" fill="#3C3489">AboutPage</text>
<text x="468" y="273" text-anchor="middle" dominant-baseline="central" font-size="10" fill="#534AB7">/about</text>
<rect x="554" y="244" width="120" height="42" rx="6" fill="#F1EFE8" stroke="#B4B2A9" stroke-width="0.6"/>
<text x="614" y="258" text-anchor="middle" dominant-baseline="central" font-size="12" font-weight="500" fill="#5F5E5A">NotFoundPage</text>
<text x="614" y="273" text-anchor="middle" dominant-baseline="central" font-size="10" fill="#888">/*</text>

<!-- DashboardPage → children -->
<line x1="65"  y1="286" x2="65"  y2="322" stroke="#888" stroke-width="1" marker-end="url(#arr)"/>
<line x1="95"  y1="286" x2="210" y2="322" stroke="#888" stroke-width="1" marker-end="url(#arr)"/>
<line x1="125" y1="286" x2="350" y2="322" stroke="#888" stroke-width="1" marker-end="url(#arr)"/>
<line x1="155" y1="286" x2="496" y2="322" stroke="#888" stroke-width="1" marker-end="url(#arr)"/>

<!-- Layer 5: Dashboard children -->
<rect x="14" y="326" width="120" height="30" rx="5" fill="#EEEDFE" stroke="#534AB7" stroke-width="0.5"/>
<text x="74" y="341" text-anchor="middle" dominant-baseline="central" font-size="10" font-weight="500" fill="#3C3489">ContingentSelector</text>
<rect x="152" y="326" width="130" height="30" rx="5" fill="#EEEDFE" stroke="#534AB7" stroke-width="0.5"/>
<text x="217" y="341" text-anchor="middle" dominant-baseline="central" font-size="10" font-weight="500" fill="#3C3489">KpiOverviewPanel</text>
<rect x="300" y="326" width="110" height="30" rx="5" fill="#EEEDFE" stroke="#534AB7" stroke-width="0.5"/>
<text x="355" y="341" text-anchor="middle" dominant-baseline="central" font-size="10" font-weight="500" fill="#3C3489">KpiChartPanel</text>
<rect x="428" y="326" width="140" height="30" rx="5" fill="#FAECE7" stroke="#993C1D" stroke-width="0.5"/>
<text x="498" y="341" text-anchor="middle" dominant-baseline="central" font-size="10" font-weight="500" fill="#712B13">DecisionSupportCard</text>

<!-- common/ -->
<rect x="590" y="326" width="100" height="30" rx="5" fill="#F1EFE8" stroke="#B4B2A9" stroke-width="0.5"/>
<text x="640" y="335" text-anchor="middle" dominant-baseline="central" font-size="10" font-weight="500" fill="#5F5E5A">common/</text>
<text x="640" y="347" text-anchor="middle" dominant-baseline="central" font-size="9" fill="#888">Spinner, EmptyState</text>

<!-- Dashed lines to common/ -->
<path d="M190 265 L190 296 L640 296 L640 324" fill="none" stroke="#aaa" stroke-width="0.8" stroke-dasharray="4 3" marker-end="url(#arrd)"/>
<path d="M383 268 L406 296" fill="none" stroke="#aaa" stroke-width="0.8" stroke-dasharray="4 3"/>
<path d="M526 268 L580 296" fill="none" stroke="#aaa" stroke-width="0.8" stroke-dasharray="4 3"/>
<text x="640" y="310" text-anchor="middle" font-size="9" fill="#aaa">used by all pages</text>

<!-- ══════ Chart components: exactly 1 arrow per box ══════ -->
<!-- Arrow 1: KpiChartPanel(330,356) → TemperatureTrend(330,374) -->
<line x1="330" y1="356" x2="330" y2="372" stroke="#888" stroke-width="0.8" marker-end="url(#arr)"/>
<!-- Arrow 2: KpiChartPanel(355,356) → EnergyComparison(445,374) -->
<line x1="355" y1="356" x2="445" y2="372" stroke="#888" stroke-width="0.8" marker-end="url(#arr)"/>
<!-- Arrow 3: KpiChartPanel(380,356) → CopGauge(548,374) -->
<line x1="380" y1="356" x2="548" y2="372" stroke="#888" stroke-width="0.8" marker-end="url(#arr)"/>

<rect x="280" y="374" width="100" height="22" rx="4" fill="#EEEDFE" stroke="#534AB7" stroke-width="0.4"/>
<text x="330" y="385" text-anchor="middle" dominant-baseline="central" font-size="9" fill="#3C3489">TemperatureTrend</text>
<rect x="390" y="374" width="110" height="22" rx="4" fill="#EEEDFE" stroke="#534AB7" stroke-width="0.4"/>
<text x="445" y="385" text-anchor="middle" dominant-baseline="central" font-size="9" fill="#3C3489">EnergyComparison</text>
<rect x="510" y="374" width="76" height="22" rx="4" fill="#EEEDFE" stroke="#534AB7" stroke-width="0.4"/>
<text x="548" y="385" text-anchor="middle" dominant-baseline="central" font-size="9" fill="#3C3489">CopGauge</text>

<!-- Separator -->
<line x1="30" y1="412" x2="690" y2="412" stroke="#ddd" stroke-width="0.5" stroke-dasharray="8 4"/>
<text x="360" y="428" text-anchor="middle" font-size="10" fill="#999" font-weight="500">SERVICE LAYER</text>
<text x="360" y="440" text-anchor="middle" font-size="9" fill="#aaa">All services imported and called by the useDashboardData hook</text>

<!-- Services pipeline -->
<rect x="18" y="456" width="105" height="38" rx="5" fill="#FAECE7" stroke="#993C1D" stroke-width="0.6"/>
<text x="70" y="469" text-anchor="middle" dominant-baseline="central" font-size="11" font-weight="600" fill="#712B13">config.ts</text>
<text x="70" y="483" text-anchor="middle" dominant-baseline="central" font-size="9" fill="#993C1D">env vars</text>
<line x1="123" y1="475" x2="137" y2="475" stroke="#888" stroke-width="1" marker-end="url(#arr)"/>
<rect x="141" y="456" width="105" height="38" rx="5" fill="#FAECE7" stroke="#993C1D" stroke-width="0.6"/>
<text x="193" y="469" text-anchor="middle" dominant-baseline="central" font-size="11" font-weight="600" fill="#712B13">hupieApi.ts</text>
<text x="193" y="483" text-anchor="middle" dominant-baseline="central" font-size="9" fill="#993C1D">Axios + SPARQL</text>
<line x1="246" y1="475" x2="260" y2="475" stroke="#888" stroke-width="1" marker-end="url(#arr)"/>
<rect x="264" y="456" width="110" height="38" rx="5" fill="#FAECE7" stroke="#993C1D" stroke-width="0.6"/>
<text x="319" y="469" text-anchor="middle" dominant-baseline="central" font-size="11" font-weight="600" fill="#712B13">dataMapper.ts</text>
<text x="319" y="483" text-anchor="middle" dominant-baseline="central" font-size="9" fill="#993C1D">raw JSON &#x2192; typed</text>
<line x1="374" y1="475" x2="388" y2="475" stroke="#888" stroke-width="1" marker-end="url(#arr)"/>
<rect x="392" y="456" width="120" height="38" rx="5" fill="#FAECE7" stroke="#993C1D" stroke-width="0.6"/>
<text x="452" y="469" text-anchor="middle" dominant-baseline="central" font-size="11" font-weight="600" fill="#712B13">kpiAggregator.ts</text>
<text x="452" y="483" text-anchor="middle" dominant-baseline="central" font-size="9" fill="#993C1D">calculate KPIs</text>
<line x1="512" y1="475" x2="526" y2="475" stroke="#888" stroke-width="1" marker-end="url(#arr)"/>
<rect x="530" y="456" width="138" height="38" rx="5" fill="#FAECE7" stroke="#993C1D" stroke-width="0.6"/>
<text x="599" y="469" text-anchor="middle" dominant-baseline="central" font-size="11" font-weight="600" fill="#712B13">decisionEngine.ts</text>
<text x="599" y="483" text-anchor="middle" dominant-baseline="central" font-size="9" fill="#993C1D">score + recommend</text>

<!-- Helper services -->
<line x1="193" y1="494" x2="193" y2="508" stroke="#bbb" stroke-width="0.5" stroke-dasharray="3 2"/>
<rect x="141" y="510" width="105" height="26" rx="5" fill="#F1EFE8" stroke="#B4B2A9" stroke-width="0.5"/>
<text x="193" y="523" text-anchor="middle" dominant-baseline="central" font-size="10" fill="#5F5E5A">sparqlQueries.ts</text>
<line x1="452" y1="494" x2="452" y2="508" stroke="#bbb" stroke-width="0.5" stroke-dasharray="3 2"/>
<rect x="392" y="510" width="120" height="26" rx="5" fill="#F1EFE8" stroke="#B4B2A9" stroke-width="0.5"/>
<text x="452" y="523" text-anchor="middle" dominant-baseline="central" font-size="10" fill="#5F5E5A">contingentService.ts</text>
<line x1="599" y1="494" x2="599" y2="508" stroke="#bbb" stroke-width="0.5" stroke-dasharray="3 2"/>
<rect x="544" y="510" width="110" height="26" rx="5" fill="#F1EFE8" stroke="#B4B2A9" stroke-width="0.5"/>
<text x="599" y="523" text-anchor="middle" dominant-baseline="central" font-size="10" fill="#5F5E5A">scoringConfig.ts</text>

<!-- Shared types bar -->
<rect x="18" y="556" width="650" height="28" rx="5" fill="#F8F7F4" stroke="#D0CEC7" stroke-width="0.5"/>
<text x="343" y="564" text-anchor="middle" dominant-baseline="central" font-size="10" font-weight="500" fill="#5F5E5A">Shared TypeScript interfaces</text>
<text x="343" y="578" text-anchor="middle" dominant-baseline="central" font-size="9" fill="#888">types/api.ts  ·  types/heatpump.ts  ·  types/units.ts  ·  types/decision.ts</text>
<text x="668" y="550" text-anchor="end" font-size="9" fill="#aaa">imported by all layers</text>

<!-- Legend -->
<g transform="translate(30, 602)">
  <rect x="0" y="0" width="10" height="10" rx="2" fill="#E6F1FB" stroke="#185FA5" stroke-width="0.5"/>
  <text x="14" y="9" font-size="10" fill="#888">Providers</text>
  <rect x="80" y="0" width="10" height="10" rx="2" fill="#E1F5EE" stroke="#0F6E56" stroke-width="0.5"/>
  <text x="94" y="9" font-size="10" fill="#888">Layout</text>
  <rect x="145" y="0" width="10" height="10" rx="2" fill="#EEEDFE" stroke="#534AB7" stroke-width="0.5"/>
  <text x="159" y="9" font-size="10" fill="#888">Pages + UI</text>
  <rect x="235" y="0" width="10" height="10" rx="2" fill="#FAECE7" stroke="#993C1D" stroke-width="0.5"/>
  <text x="249" y="9" font-size="10" fill="#888">Services + data</text>
  <rect x="350" y="0" width="10" height="10" rx="2" fill="#F1EFE8" stroke="#B4B2A9" stroke-width="0.5"/>
  <text x="364" y="9" font-size="10" fill="#888">Utility / shared</text>
  <line x1="460" y1="5" x2="485" y2="5" stroke="#888" stroke-width="1" marker-end="url(#arr)"/>
  <text x="490" y="9" font-size="10" fill="#888">Renders</text>
  <line x1="540" y1="5" x2="565" y2="5" stroke="#aaa" stroke-width="0.8" stroke-dasharray="4 3" marker-end="url(#arrd)"/>
  <text x="570" y="9" font-size="10" fill="#888">Shared usage</text>
</g>
</svg>
