<svg width="100%" viewBox="0 0 1100 780" xmlns="http://www.w3.org/2000/svg" style="font-family: Arial, Helvetica, sans-serif; background: white;">
<defs>
  <marker id="arr" viewBox="0 0 10 10" refX="9" refY="5" markerWidth="6" markerHeight="6" orient="auto-start-reverse">
    <path d="M1 1L9 5L1 9" fill="none" stroke="#555" stroke-width="1.5" stroke-linecap="round"/>
  </marker>
  <marker id="arrG" viewBox="0 0 10 10" refX="9" refY="5" markerWidth="6" markerHeight="6" orient="auto-start-reverse">
    <path d="M1 1L9 5L1 9" fill="none" stroke="#0F6E56" stroke-width="1.5" stroke-linecap="round"/>
  </marker>
  <marker id="arrR" viewBox="0 0 10 10" refX="9" refY="5" markerWidth="6" markerHeight="6" orient="auto-start-reverse">
    <path d="M1 1L9 5L1 9" fill="none" stroke="#993C1D" stroke-width="1.5" stroke-linecap="round"/>
  </marker>
  <marker id="arrd" viewBox="0 0 10 10" refX="9" refY="5" markerWidth="6" markerHeight="6" orient="auto-start-reverse">
    <path d="M1 1L9 5L1 9" fill="none" stroke="#aaa" stroke-width="1.5" stroke-linecap="round"/>
  </marker>
</defs>

<!-- Title -->
<text x="550" y="24" text-anchor="middle" font-size="14" font-weight="600" fill="#333">Sequence Diagram — Data Flow</text>
<text x="550" y="40" text-anchor="middle" font-size="10" fill="#888">User selects contingent → SPARQL fetch → map → filter → aggregate → score → UI update</text>

<!-- ══════ Participants (9 total) ══════ -->
<!-- User -->
<rect x="16" y="56" width="58" height="32" rx="6" fill="#E6F1FB" stroke="#185FA5" stroke-width="0.8"/>
<text x="45" y="72" text-anchor="middle" dominant-baseline="central" font-size="10" font-weight="600" fill="#0C447C">User</text>

<!-- DashboardPage -->
<rect x="104" y="56" width="110" height="32" rx="6" fill="#EEEDFE" stroke="#534AB7" stroke-width="0.8"/>
<text x="159" y="72" text-anchor="middle" dominant-baseline="central" font-size="10" font-weight="600" fill="#3C3489">DashboardPage</text>

<!-- useDashboardData -->
<rect x="248" y="56" width="120" height="32" rx="6" fill="#FAECE7" stroke="#993C1D" stroke-width="0.8"/>
<text x="308" y="72" text-anchor="middle" dominant-baseline="central" font-size="10" font-weight="600" fill="#712B13">useDashboardData</text>

<!-- hupieApi -->
<rect x="400" y="56" width="84" height="32" rx="6" fill="#FAECE7" stroke="#993C1D" stroke-width="0.8"/>
<text x="442" y="72" text-anchor="middle" dominant-baseline="central" font-size="10" font-weight="600" fill="#712B13">hupieApi.ts</text>

<!-- Hupie API (external) -->
<rect x="516" y="56" width="84" height="32" rx="6" fill="#E1F5EE" stroke="#0F6E56" stroke-width="0.8"/>
<text x="558" y="66" text-anchor="middle" dominant-baseline="central" font-size="10" font-weight="600" fill="#085041">Hupie API</text>
<text x="558" y="80" text-anchor="middle" dominant-baseline="central" font-size="9" fill="#0F6E56">(SPARQL)</text>

<!-- dataMapper -->
<rect x="632" y="56" width="84" height="32" rx="6" fill="#FAECE7" stroke="#993C1D" stroke-width="0.8"/>
<text x="674" y="72" text-anchor="middle" dominant-baseline="central" font-size="10" font-weight="600" fill="#712B13">dataMapper</text>

<!-- contingentService -->
<rect x="748" y="56" width="100" height="32" rx="6" fill="#F1EFE8" stroke="#B4B2A9" stroke-width="0.8"/>
<text x="798" y="66" text-anchor="middle" dominant-baseline="central" font-size="9" font-weight="600" fill="#5F5E5A">contingent</text>
<text x="798" y="80" text-anchor="middle" dominant-baseline="central" font-size="9" font-weight="600" fill="#5F5E5A">Service.ts</text>

<!-- kpiAggregator -->
<rect x="880" y="56" width="90" height="32" rx="6" fill="#FAECE7" stroke="#993C1D" stroke-width="0.8"/>
<text x="925" y="66" text-anchor="middle" dominant-baseline="central" font-size="9" font-weight="600" fill="#712B13">kpi</text>
<text x="925" y="80" text-anchor="middle" dominant-baseline="central" font-size="9" font-weight="600" fill="#712B13">Aggregator.ts</text>

<!-- decisionEngine -->
<rect x="1002" y="56" width="90" height="32" rx="6" fill="#FAECE7" stroke="#993C1D" stroke-width="0.8"/>
<text x="1047" y="66" text-anchor="middle" dominant-baseline="central" font-size="9" font-weight="600" fill="#712B13">decision</text>
<text x="1047" y="80" text-anchor="middle" dominant-baseline="central" font-size="9" font-weight="600" fill="#712B13">Engine.ts</text>

<!-- ══════ Lifelines ══════ -->
<line x1="45"   y1="88" x2="45"   y2="710" stroke="#ccc" stroke-width="0.8" stroke-dasharray="4 3"/>
<line x1="159"  y1="88" x2="159"  y2="710" stroke="#ccc" stroke-width="0.8" stroke-dasharray="4 3"/>
<line x1="308"  y1="88" x2="308"  y2="710" stroke="#ccc" stroke-width="0.8" stroke-dasharray="4 3"/>
<line x1="442"  y1="88" x2="442"  y2="710" stroke="#ccc" stroke-width="0.8" stroke-dasharray="4 3"/>
<line x1="558"  y1="88" x2="558"  y2="710" stroke="#ccc" stroke-width="0.8" stroke-dasharray="4 3"/>
<line x1="674"  y1="88" x2="674"  y2="710" stroke="#ccc" stroke-width="0.8" stroke-dasharray="4 3"/>
<line x1="798"  y1="88" x2="798"  y2="710" stroke="#ccc" stroke-width="0.8" stroke-dasharray="4 3"/>
<line x1="925"  y1="88" x2="925"  y2="710" stroke="#ccc" stroke-width="0.8" stroke-dasharray="4 3"/>
<line x1="1047" y1="88" x2="1047" y2="710" stroke="#ccc" stroke-width="0.8" stroke-dasharray="4 3"/>

<!-- Activation box on useDashboardData (long-running) -->
<rect x="304" y="140" width="8" height="500" rx="1" fill="#FAECE7" stroke="#993C1D" stroke-width="0.3" opacity="0.25"/>

<!-- ══════ Step 1: User clicks ══════ -->
<rect x="6" y="104" width="18" height="14" rx="2" fill="#185FA5"/><text x="15" y="114" text-anchor="middle" dominant-baseline="central" font-size="8" font-weight="600" fill="white">1</text>
<line x1="45" y1="111" x2="157" y2="111" stroke="#555" stroke-width="1" marker-end="url(#arr)"/>
<text x="101" y="104" text-anchor="middle" font-size="9" fill="#555">clicks contingent card</text>

<!-- ══════ Step 2: setSelectedContingent ══════ -->
<rect x="6" y="136" width="18" height="14" rx="2" fill="#185FA5"/><text x="15" y="146" text-anchor="middle" dominant-baseline="central" font-size="8" font-weight="600" fill="white">2</text>
<line x1="159" y1="143" x2="306" y2="143" stroke="#555" stroke-width="1" marker-end="url(#arr)"/>
<text x="232" y="136" text-anchor="middle" font-size="9" fill="#555">setSelectedContingent(id)</text>

<!-- ══════ Step 3: useEffect triggers ══════ -->
<rect x="6" y="168" width="18" height="14" rx="2" fill="#185FA5"/><text x="15" y="178" text-anchor="middle" dominant-baseline="central" font-size="8" font-weight="600" fill="white">3</text>
<path d="M308 175 L340 175 L340 190 L310 190" fill="none" stroke="#555" stroke-width="1" marker-end="url(#arr)"/>
<text x="372" y="183" font-size="9" fill="#555">useEffect triggers</text>

<!-- ══════ Step 4: fetchHeatPumpData ══════ -->
<rect x="6" y="204" width="18" height="14" rx="2" fill="#185FA5"/><text x="15" y="214" text-anchor="middle" dominant-baseline="central" font-size="8" font-weight="600" fill="white">4</text>
<line x1="308" y1="211" x2="440" y2="211" stroke="#555" stroke-width="1" marker-end="url(#arr)"/>
<text x="374" y="204" text-anchor="middle" font-size="9" fill="#555">fetchHeatPumpData()</text>

<!-- ══════ Step 5: POST SPARQL ══════ -->
<rect x="6" y="236" width="18" height="14" rx="2" fill="#185FA5"/><text x="15" y="246" text-anchor="middle" dominant-baseline="central" font-size="8" font-weight="600" fill="white">5</text>
<line x1="442" y1="243" x2="556" y2="243" stroke="#0F6E56" stroke-width="1" marker-end="url(#arrG)"/>
<text x="499" y="236" text-anchor="middle" font-size="9" fill="#0F6E56">POST /sparql (Axios)</text>
<!-- Activation on Hupie -->
<rect x="554" y="239" width="8" height="36" rx="1" fill="#E1F5EE" stroke="#0F6E56" stroke-width="0.5"/>

<!-- ══════ Step 6: SparqlResponse ══════ -->
<rect x="6" y="268" width="18" height="14" rx="2" fill="#185FA5"/><text x="15" y="278" text-anchor="middle" dominant-baseline="central" font-size="8" font-weight="600" fill="white">6</text>
<line x1="556" y1="275" x2="444" y2="275" stroke="#0F6E56" stroke-width="1" stroke-dasharray="5 3" marker-end="url(#arrG)"/>
<text x="499" y="268" text-anchor="middle" font-size="9" fill="#0F6E56">SparqlResponse (JSON)</text>

<!-- ══════ Step 7: raw data back to hook ══════ -->
<rect x="6" y="300" width="18" height="14" rx="2" fill="#185FA5"/><text x="15" y="310" text-anchor="middle" dominant-baseline="central" font-size="8" font-weight="600" fill="white">7</text>
<line x1="440" y1="307" x2="310" y2="307" stroke="#555" stroke-width="1" stroke-dasharray="5 3" marker-end="url(#arr)"/>
<text x="375" y="300" text-anchor="middle" font-size="9" fill="#555">raw SparqlResponse</text>

<!-- ══════ Step 8: mapToHeatPumpSystems ══════ -->
<rect x="6" y="330" width="18" height="14" rx="2" fill="#185FA5"/><text x="15" y="340" text-anchor="middle" dominant-baseline="central" font-size="8" font-weight="600" fill="white">8</text>
<line x1="308" y1="337" x2="672" y2="337" stroke="#555" stroke-width="1" marker-end="url(#arr)"/>
<text x="490" y="330" text-anchor="middle" font-size="9" fill="#555">mapToHeatPumpSystems(response)</text>
<!-- Activation on dataMapper -->
<rect x="670" y="333" width="8" height="32" rx="1" fill="#FAECE7" stroke="#993C1D" stroke-width="0.5"/>

<!-- ══════ Step 9: typed data returned ══════ -->
<rect x="6" y="360" width="18" height="14" rx="2" fill="#185FA5"/><text x="15" y="370" text-anchor="middle" dominant-baseline="central" font-size="8" font-weight="600" fill="white">9</text>
<line x1="672" y1="367" x2="310" y2="367" stroke="#555" stroke-width="1" stroke-dasharray="5 3" marker-end="url(#arr)"/>
<text x="490" y="360" text-anchor="middle" font-size="9" fill="#555">HeatPumpSystem[] + Measurement[]</text>

<!-- ══════ Step 10: filter by contingent ══════ -->
<rect x="6" y="394" width="18" height="14" rx="2" fill="#185FA5"/><text x="15" y="404" text-anchor="middle" dominant-baseline="central" font-size="8" font-weight="600" fill="white">10</text>
<line x1="308" y1="401" x2="796" y2="401" stroke="#555" stroke-width="1" marker-end="url(#arr)"/>
<text x="552" y="394" text-anchor="middle" font-size="9" fill="#555">filterByContingent(systems, selectedId)</text>
<!-- Activation on contingentService -->
<rect x="794" y="397" width="8" height="32" rx="1" fill="#F1EFE8" stroke="#B4B2A9" stroke-width="0.5"/>

<!-- ══════ Step 11: filtered systems returned ══════ -->
<rect x="6" y="424" width="18" height="14" rx="2" fill="#185FA5"/><text x="15" y="434" text-anchor="middle" dominant-baseline="central" font-size="8" font-weight="600" fill="white">11</text>
<line x1="796" y1="431" x2="310" y2="431" stroke="#555" stroke-width="1" stroke-dasharray="5 3" marker-end="url(#arr)"/>
<text x="552" y="424" text-anchor="middle" font-size="9" fill="#555">filtered HeatPumpSystem[]</text>

<!-- ══════ Step 12: calculate KPIs ══════ -->
<rect x="6" y="458" width="18" height="14" rx="2" fill="#185FA5"/><text x="15" y="468" text-anchor="middle" dominant-baseline="central" font-size="8" font-weight="600" fill="white">12</text>
<line x1="308" y1="465" x2="923" y2="465" stroke="#555" stroke-width="1" marker-end="url(#arr)"/>
<text x="615" y="458" text-anchor="middle" font-size="9" fill="#555">calculateKpis(filteredSystems, measurements)</text>
<!-- Activation on kpiAggregator -->
<rect x="921" y="461" width="8" height="32" rx="1" fill="#FAECE7" stroke="#993C1D" stroke-width="0.5"/>

<!-- ══════ Step 13: aggregated KPIs returned ══════ -->
<rect x="6" y="488" width="18" height="14" rx="2" fill="#185FA5"/><text x="15" y="498" text-anchor="middle" dominant-baseline="central" font-size="8" font-weight="600" fill="white">13</text>
<line x1="923" y1="495" x2="310" y2="495" stroke="#555" stroke-width="1" stroke-dasharray="5 3" marker-end="url(#arr)"/>
<text x="615" y="488" text-anchor="middle" font-size="9" fill="#555">AggregatedKpis + KeyPerformanceIndicator[]</text>

<!-- ══════ Step 14: run decision engine ══════ -->
<rect x="6" y="522" width="18" height="14" rx="2" fill="#185FA5"/><text x="15" y="532" text-anchor="middle" dominant-baseline="central" font-size="8" font-weight="600" fill="white">14</text>
<line x1="308" y1="529" x2="1045" y2="529" stroke="#993C1D" stroke-width="1" marker-end="url(#arrR)"/>
<text x="676" y="522" text-anchor="middle" font-size="9" fill="#993C1D">score(aggregatedKpis, scoringConfig)</text>
<!-- Activation on decisionEngine -->
<rect x="1043" y="525" width="8" height="32" rx="1" fill="#FAECE7" stroke="#993C1D" stroke-width="0.5"/>

<!-- ══════ Step 15: decision results returned ══════ -->
<rect x="6" y="552" width="18" height="14" rx="2" fill="#185FA5"/><text x="15" y="562" text-anchor="middle" dominant-baseline="central" font-size="8" font-weight="600" fill="white">15</text>
<line x1="1045" y1="559" x2="310" y2="559" stroke="#993C1D" stroke-width="1" stroke-dasharray="5 3" marker-end="url(#arrR)"/>
<text x="676" y="552" text-anchor="middle" font-size="9" fill="#993C1D">DecisionScore + Recommendation[]</text>

<!-- ══════ Step 16: setState + useMemo ══════ -->
<rect x="6" y="586" width="18" height="14" rx="2" fill="#185FA5"/><text x="15" y="596" text-anchor="middle" dominant-baseline="central" font-size="8" font-weight="600" fill="white">16</text>
<path d="M308 593 L340 593 L340 608 L310 608" fill="none" stroke="#555" stroke-width="1" marker-end="url(#arr)"/>
<text x="386" y="601" font-size="9" fill="#555">setState → useMemo recalculates</text>

<!-- ══════ Step 17: context re-renders UI ══════ -->
<rect x="6" y="622" width="18" height="14" rx="2" fill="#185FA5"/><text x="15" y="632" text-anchor="middle" dominant-baseline="central" font-size="8" font-weight="600" fill="white">17</text>
<line x1="306" y1="629" x2="161" y2="629" stroke="#555" stroke-width="1" stroke-dasharray="5 3" marker-end="url(#arr)"/>
<text x="233" y="622" text-anchor="middle" font-size="9" fill="#555">context re-render</text>

<!-- ══════ Step 18: user sees update ══════ -->
<rect x="6" y="652" width="18" height="14" rx="2" fill="#185FA5"/><text x="15" y="662" text-anchor="middle" dominant-baseline="central" font-size="8" font-weight="600" fill="white">18</text>
<line x1="157" y1="659" x2="47" y2="659" stroke="#555" stroke-width="1" stroke-dasharray="5 3" marker-end="url(#arr)"/>
<text x="101" y="652" text-anchor="middle" font-size="9" fill="#555">updated charts + scores</text>

<!-- ══════ Participant boxes (bottom) ══════ -->
<rect x="16"   y="710" width="58"  height="24" rx="5" fill="#E6F1FB" stroke="#185FA5" stroke-width="0.6"/>
<text x="45"   y="722" text-anchor="middle" dominant-baseline="central" font-size="9" font-weight="600" fill="#0C447C">User</text>
<rect x="104"  y="710" width="110" height="24" rx="5" fill="#EEEDFE" stroke="#534AB7" stroke-width="0.6"/>
<text x="159"  y="722" text-anchor="middle" dominant-baseline="central" font-size="9" font-weight="600" fill="#3C3489">DashboardPage</text>
<rect x="248"  y="710" width="120" height="24" rx="5" fill="#FAECE7" stroke="#993C1D" stroke-width="0.6"/>
<text x="308"  y="722" text-anchor="middle" dominant-baseline="central" font-size="9" font-weight="600" fill="#712B13">useDashboardData</text>
<rect x="400"  y="710" width="84"  height="24" rx="5" fill="#FAECE7" stroke="#993C1D" stroke-width="0.6"/>
<text x="442"  y="722" text-anchor="middle" dominant-baseline="central" font-size="9" font-weight="600" fill="#712B13">hupieApi.ts</text>
<rect x="516"  y="710" width="84"  height="24" rx="5" fill="#E1F5EE" stroke="#0F6E56" stroke-width="0.6"/>
<text x="558"  y="722" text-anchor="middle" dominant-baseline="central" font-size="9" font-weight="600" fill="#085041">Hupie API</text>
<rect x="632"  y="710" width="84"  height="24" rx="5" fill="#FAECE7" stroke="#993C1D" stroke-width="0.6"/>
<text x="674"  y="722" text-anchor="middle" dominant-baseline="central" font-size="9" font-weight="600" fill="#712B13">dataMapper</text>
<rect x="748"  y="710" width="100" height="24" rx="5" fill="#F1EFE8" stroke="#B4B2A9" stroke-width="0.6"/>
<text x="798"  y="722" text-anchor="middle" dominant-baseline="central" font-size="9" font-weight="600" fill="#5F5E5A">contingentService</text>
<rect x="880"  y="710" width="90"  height="24" rx="5" fill="#FAECE7" stroke="#993C1D" stroke-width="0.6"/>
<text x="925"  y="722" text-anchor="middle" dominant-baseline="central" font-size="9" font-weight="600" fill="#712B13">kpiAggregator</text>
<rect x="1002" y="710" width="90"  height="24" rx="5" fill="#FAECE7" stroke="#993C1D" stroke-width="0.6"/>
<text x="1047" y="722" text-anchor="middle" dominant-baseline="central" font-size="9" font-weight="600" fill="#712B13">decisionEngine</text>

<!-- ══════ Legend ══════ -->
<g transform="translate(30, 752)">
  <line x1="0" y1="5" x2="25" y2="5" stroke="#555" stroke-width="1" marker-end="url(#arr)"/>
  <text x="30" y="9" font-size="10" fill="#888">Sync call</text>
  <line x1="100" y1="5" x2="125" y2="5" stroke="#555" stroke-width="1" stroke-dasharray="5 3" marker-end="url(#arr)"/>
  <text x="130" y="9" font-size="10" fill="#888">Return</text>
  <line x1="190" y1="5" x2="215" y2="5" stroke="#0F6E56" stroke-width="1" marker-end="url(#arrG)"/>
  <text x="220" y="9" font-size="10" fill="#888">HTTP request</text>
  <line x1="310" y1="5" x2="335" y2="5" stroke="#993C1D" stroke-width="1" marker-end="url(#arrR)"/>
  <text x="340" y="9" font-size="10" fill="#888">Decision scoring</text>
  <rect x="440" y="0" width="8" height="10" rx="1" fill="#FAECE7" stroke="#993C1D" stroke-width="0.5"/>
  <text x="454" y="9" font-size="10" fill="#888">Active</text>
  <rect x="510" y="0" width="14" height="10" rx="2" fill="#185FA5"/>
  <text x="530" y="9" font-size="10" fill="#888">Step #</text>
</g>
</svg>
