<svg width="100%" viewBox="0 0 650 340" xmlns="http://www.w3.org/2000/svg" style="font-family: Arial, Helvetica, sans-serif; background: white;">
<defs>
  <marker id="arrow" viewBox="0 0 10 10" refX="9" refY="5" markerWidth="6" markerHeight="6" orient="auto-start-reverse">
    <path d="M1 1L9 5L1 9" fill="none" stroke="#888" stroke-width="1.5" stroke-linecap="round"/>
  </marker>
  <marker id="arrd" viewBox="0 0 10 10" refX="9" refY="5" markerWidth="6" markerHeight="6" orient="auto-start-reverse">
    <path d="M1 1L9 5L1 9" fill="none" stroke="#aaa" stroke-width="1.5" stroke-linecap="round"/>
  </marker>
</defs>

<!-- Root: App with Router -->
<rect x="150" y="30" width="300" height="50" rx="10" fill="#E6F1FB" stroke="#185FA5" stroke-width="0.8"/>
<text x="300" y="50" text-anchor="middle" dominant-baseline="central" font-size="15" font-weight="600" fill="#0C447C">TDI 500 KPI Dashboard</text>
<text x="300" y="66" text-anchor="middle" dominant-baseline="central" font-size="11" fill="#185FA5">BrowserRouter (App.tsx)</text>

<!-- Arrows to two main routes -->
<line x1="230" y1="80" x2="130" y2="126" stroke="#888" stroke-width="1" marker-end="url(#arrow)"/>
<line x1="370" y1="80" x2="430" y2="126" stroke="#888" stroke-width="1" marker-end="url(#arrow)"/>

<!-- Route: / Dashboard -->
<rect x="30" y="130" width="200" height="50" rx="8" fill="#E1F5EE" stroke="#0F6E56" stroke-width="0.8"/>
<text x="130" y="148" text-anchor="middle" dominant-baseline="central" font-size="13" font-weight="600" fill="#085041">DashboardPage</text>
<text x="130" y="166" text-anchor="middle" dominant-baseline="central" font-size="11" fill="#0F6E56">/</text>

<!-- Route: /contingent/:id -->
<rect x="340" y="130" width="200" height="50" rx="8" fill="#E1F5EE" stroke="#0F6E56" stroke-width="0.8"/>
<text x="440" y="148" text-anchor="middle" dominant-baseline="central" font-size="13" font-weight="600" fill="#085041">ContingentDetailPage</text>
<text x="440" y="166" text-anchor="middle" dominant-baseline="central" font-size="11" fill="#0F6E56">/contingent/:id</text>

<!-- Navigation: Dashboard select → Detail -->
<line x1="230" y1="155" x2="338" y2="155" stroke="#aaa" stroke-width="1" stroke-dasharray="4 3" marker-end="url(#arrd)"/>
<text x="284" y="146" text-anchor="middle" font-size="9" fill="#aaa">select contingent</text>

<!-- Arrows from Dashboard to sub-sections -->
<line x1="70" y1="180" x2="70" y2="218" stroke="#888" stroke-width="1" marker-end="url(#arrow)"/>
<line x1="130" y1="180" x2="200" y2="218" stroke="#888" stroke-width="1" marker-end="url(#arrow)"/>
<line x1="170" y1="180" x2="345" y2="218" stroke="#888" stroke-width="1" marker-end="url(#arrow)"/>

<!-- Dashboard sub-panels -->
<rect x="20" y="222" width="130" height="40" rx="6" fill="#EEEDFE" stroke="#534AB7" stroke-width="0.6"/>
<text x="85" y="242" text-anchor="middle" dominant-baseline="central" font-size="12" font-weight="500" fill="#3C3489">KPI charts</text>

<rect x="168" y="222" width="130" height="40" rx="6" fill="#EEEDFE" stroke="#534AB7" stroke-width="0.6"/>
<text x="233" y="236" text-anchor="middle" dominant-baseline="central" font-size="11" font-weight="500" fill="#3C3489">Contingent</text>
<text x="233" y="250" text-anchor="middle" dominant-baseline="central" font-size="11" font-weight="500" fill="#3C3489">selector</text>

<rect x="316" y="222" width="130" height="40" rx="6" fill="#FAECE7" stroke="#993C1D" stroke-width="0.6"/>
<text x="381" y="236" text-anchor="middle" dominant-baseline="central" font-size="11" font-weight="500" fill="#712B13">Decision</text>
<text x="381" y="250" text-anchor="middle" dominant-baseline="central" font-size="11" font-weight="500" fill="#712B13">support</text>

<!-- 404 catch-all — dashed from Router -->
<rect x="460" y="222" width="120" height="40" rx="6" fill="#F1EFE8" stroke="#B4B2A9" stroke-width="0.6"/>
<text x="520" y="236" text-anchor="middle" dominant-baseline="central" font-size="12" font-weight="500" fill="#5F5E5A">NotFoundPage</text>
<text x="520" y="250" text-anchor="middle" dominant-baseline="central" font-size="11" fill="#888">/* (catch-all)</text>
<path d="M450 75 L570 75 L570 220" fill="none" stroke="#aaa" stroke-width="1" stroke-dasharray="4 3" marker-end="url(#arrd)"/>
<text x="578" y="160" font-size="9" fill="#aaa">no match</text>

<!-- Legend -->
<g transform="translate(30, 288)">
  <rect x="0" y="0" width="10" height="10" rx="2" fill="#E6F1FB" stroke="#185FA5" stroke-width="0.5"/>
  <text x="14" y="9" font-size="10" fill="#888">App shell</text>
  <rect x="85" y="0" width="10" height="10" rx="2" fill="#E1F5EE" stroke="#0F6E56" stroke-width="0.5"/>
  <text x="99" y="9" font-size="10" fill="#888">Route pages</text>
  <rect x="175" y="0" width="10" height="10" rx="2" fill="#EEEDFE" stroke="#534AB7" stroke-width="0.5"/>
  <text x="189" y="9" font-size="10" fill="#888">Dashboard panels</text>
  <rect x="300" y="0" width="10" height="10" rx="2" fill="#FAECE7" stroke="#993C1D" stroke-width="0.5"/>
  <text x="314" y="9" font-size="10" fill="#888">Decision support</text>
  <rect x="415" y="0" width="10" height="10" rx="2" fill="#F1EFE8" stroke="#B4B2A9" stroke-width="0.5"/>
  <text x="429" y="9" font-size="10" fill="#888">Error handling</text>
  <line x1="0" y1="24" x2="25" y2="24" stroke="#888" stroke-width="1" marker-end="url(#arrow)"/>
  <text x="30" y="28" font-size="10" fill="#888">Renders</text>
  <line x1="100" y1="24" x2="125" y2="24" stroke="#aaa" stroke-width="1" stroke-dasharray="4 3" marker-end="url(#arrd)"/>
  <text x="130" y="28" font-size="10" fill="#888">User navigation / fallback</text>
</g>
</svg>