<svg width="100%" viewBox="0 0 870 1080" xmlns="http://www.w3.org/2000/svg" style="font-family: Arial, Helvetica, sans-serif; background: white;">
<defs>
  <marker id="a" viewBox="0 0 10 10" refX="9" refY="5" markerWidth="7" markerHeight="7" orient="auto-start-reverse"><path d="M1 1L9 5L1 9" fill="none" stroke="#666" stroke-width="1.5" stroke-linecap="round"/></marker>
  <marker id="ad" viewBox="0 0 10 10" refX="9" refY="5" markerWidth="7" markerHeight="7" orient="auto-start-reverse"><path d="M1 1L9 5L1 9" fill="none" stroke="#aaa" stroke-width="1.5" stroke-linecap="round"/></marker>
</defs>
<text x="50" y="42" font-size="10" fill="#aaa" font-weight="500" letter-spacing="0.5">API LAYER</text>
<text x="50" y="212" font-size="10" fill="#aaa" font-weight="500" letter-spacing="0.5">DOMAIN MODELS</text>
<text x="50" y="433" font-size="10" fill="#aaa" font-weight="500" letter-spacing="0.5">AGGREGATION</text>
<text x="50" y="671" font-size="10" fill="#aaa" font-weight="500" letter-spacing="0.5">DECISION ENGINE</text>
<text x="50" y="875" font-size="10" fill="#aaa" font-weight="500" letter-spacing="0.5">CONFIGURATION</text>
<rect x="195.0" y="48.0" width="190" height="82" rx="6" fill="#E6F1FB" stroke="#185FA5" stroke-width="0.8"/>
<line x1="195.0" y1="86.0" x2="385.0" y2="86.0" stroke="#185FA5" stroke-width="0.3"/>
<text x="290.0" y="61.0" text-anchor="middle" font-size="9" fill="#185FA5" font-style="italic">«interface»</text>
<text x="290.0" y="78.0" text-anchor="middle" font-size="13" font-weight="600" fill="#0C447C">SparqlResponse</text>
<text x="203.0" y="100.0" font-size="11" fill="#0C447C">+string[] vars</text>
<text x="203.0" y="117.0" font-size="11" fill="#0C447C">+SparqlBinding[] bindings</text>
<rect x="485.0" y="56.5" width="190" height="65" rx="6" fill="#E6F1FB" stroke="#185FA5" stroke-width="0.8"/>
<line x1="485.0" y1="94.5" x2="675.0" y2="94.5" stroke="#185FA5" stroke-width="0.3"/>
<text x="580.0" y="69.5" text-anchor="middle" font-size="9" fill="#185FA5" font-style="italic">«interface»</text>
<text x="580.0" y="86.5" text-anchor="middle" font-size="13" font-weight="600" fill="#0C447C">SparqlBinding</text>
<text x="493.0" y="108.5" font-size="11" fill="#0C447C">+Record&lt;string, SparqlValue&gt; fields</text>
<rect x="50" y="218.0" width="190" height="133" rx="6" fill="#E1F5EE" stroke="#0F6E56" stroke-width="0.8"/>
<line x1="50" y1="256.0" x2="240" y2="256.0" stroke="#0F6E56" stroke-width="0.3"/>
<text x="145.0" y="231.0" text-anchor="middle" font-size="9" fill="#0F6E56" font-style="italic">«interface»</text>
<text x="145.0" y="248.0" text-anchor="middle" font-size="13" font-weight="600" fill="#085041">HeatPumpSystem</text>
<text x="58" y="270.0" font-size="11" fill="#085041">+string id</text>
<text x="58" y="287.0" font-size="11" fill="#085041">+string label</text>
<text x="58" y="304.0" font-size="11" fill="#085041">+string contingentId</text>
<text x="58" y="321.0" font-size="11" fill="#085041">+string manufacturer</text>
<text x="58" y="338.0" font-size="11" fill="#085041">+string model</text>
<rect x="340" y="218.0" width="190" height="133" rx="6" fill="#E1F5EE" stroke="#0F6E56" stroke-width="0.8"/>
<line x1="340" y1="256.0" x2="530" y2="256.0" stroke="#0F6E56" stroke-width="0.3"/>
<text x="435.0" y="231.0" text-anchor="middle" font-size="9" fill="#0F6E56" font-style="italic">«interface»</text>
<text x="435.0" y="248.0" text-anchor="middle" font-size="13" font-weight="600" fill="#085041">Measurement</text>
<text x="348" y="270.0" font-size="11" fill="#085041">+string id</text>
<text x="348" y="287.0" font-size="11" fill="#085041">+string property</text>
<text x="348" y="304.0" font-size="11" fill="#085041">+number value</text>
<text x="348" y="321.0" font-size="11" fill="#085041">+string timestamp</text>
<text x="348" y="338.0" font-size="11" fill="#085041">+string deviceId</text>
<rect x="630" y="235.0" width="190" height="99" rx="6" fill="#E1F5EE" stroke="#0F6E56" stroke-width="0.8"/>
<line x1="630" y1="273.0" x2="820" y2="273.0" stroke="#0F6E56" stroke-width="0.3"/>
<text x="725.0" y="248.0" text-anchor="middle" font-size="9" fill="#0F6E56" font-style="italic">«interface»</text>
<text x="725.0" y="265.0" text-anchor="middle" font-size="13" font-weight="600" fill="#085041">UnitOfMeasure</text>
<text x="638" y="287.0" font-size="11" fill="#085041">+string uri</text>
<text x="638" y="304.0" font-size="11" fill="#085041">+string label</text>
<text x="638" y="321.0" font-size="11" fill="#085041">+string symbol</text>
<rect x="50" y="456.0" width="190" height="116" rx="6" fill="#EEEDFE" stroke="#534AB7" stroke-width="0.8"/>
<line x1="50" y1="494.0" x2="240" y2="494.0" stroke="#534AB7" stroke-width="0.3"/>
<text x="145.0" y="469.0" text-anchor="middle" font-size="9" fill="#534AB7" font-style="italic">«interface»</text>
<text x="145.0" y="486.0" text-anchor="middle" font-size="13" font-weight="600" fill="#3C3489">Contingent</text>
<text x="58" y="508.0" font-size="11" fill="#3C3489">+string id</text>
<text x="58" y="525.0" font-size="11" fill="#3C3489">+string name</text>
<text x="58" y="542.0" font-size="11" fill="#3C3489">+string location</text>
<text x="58" y="559.0" font-size="11" fill="#3C3489">+number totalSystems</text>
<rect x="340" y="439.0" width="190" height="150" rx="6" fill="#EEEDFE" stroke="#534AB7" stroke-width="0.8"/>
<line x1="340" y1="477.0" x2="530" y2="477.0" stroke="#534AB7" stroke-width="0.3"/>
<text x="435.0" y="452.0" text-anchor="middle" font-size="9" fill="#534AB7" font-style="italic">«interface»</text>
<text x="435.0" y="469.0" text-anchor="middle" font-size="13" font-weight="600" fill="#3C3489">AggregatedKpis</text>
<text x="348" y="491.0" font-size="11" fill="#3C3489">+string contingentId</text>
<text x="348" y="508.0" font-size="11" fill="#3C3489">+number avgCop</text>
<text x="348" y="525.0" font-size="11" fill="#3C3489">+number totalEnergy</text>
<text x="348" y="542.0" font-size="11" fill="#3C3489">+number avgSupplyTemp</text>
<text x="348" y="559.0" font-size="11" fill="#3C3489">+number avgReturnTemp</text>
<text x="348" y="576.0" font-size="11" fill="#3C3489">+number systemCount</text>
<rect x="630" y="439.0" width="190" height="150" rx="6" fill="#EEEDFE" stroke="#534AB7" stroke-width="0.8"/>
<line x1="630" y1="477.0" x2="820" y2="477.0" stroke="#534AB7" stroke-width="0.3"/>
<text x="725.0" y="452.0" text-anchor="middle" font-size="9" fill="#534AB7" font-style="italic">«interface»</text>
<text x="725.0" y="469.0" text-anchor="middle" font-size="13" font-weight="600" fill="#3C3489">KeyPerformanceIndicator</text>
<text x="638" y="491.0" font-size="11" fill="#3C3489">+string id</text>
<text x="638" y="508.0" font-size="11" fill="#3C3489">+string name</text>
<text x="638" y="525.0" font-size="11" fill="#3C3489">+number value</text>
<text x="638" y="542.0" font-size="11" fill="#3C3489">+string category</text>
<text x="638" y="559.0" font-size="11" fill="#3C3489">+number? target</text>
<text x="638" y="576.0" font-size="11" fill="#3C3489">+string? trend</text>
<rect x="50" y="694.0" width="190" height="82" rx="6" fill="#FAECE7" stroke="#993C1D" stroke-width="0.8"/>
<line x1="50" y1="732.0" x2="240" y2="732.0" stroke="#993C1D" stroke-width="0.3"/>
<text x="145.0" y="707.0" text-anchor="middle" font-size="9" fill="#993C1D" font-style="italic">«interface»</text>
<text x="145.0" y="724.0" text-anchor="middle" font-size="13" font-weight="600" fill="#712B13">DecisionScore</text>
<text x="58" y="746.0" font-size="11" fill="#712B13">+string contingentId</text>
<text x="58" y="763.0" font-size="11" fill="#712B13">+number overallScore</text>
<rect x="340" y="677.0" width="190" height="116" rx="6" fill="#FAECE7" stroke="#993C1D" stroke-width="0.8"/>
<line x1="340" y1="715.0" x2="530" y2="715.0" stroke="#993C1D" stroke-width="0.3"/>
<text x="435.0" y="690.0" text-anchor="middle" font-size="9" fill="#993C1D" font-style="italic">«interface»</text>
<text x="435.0" y="707.0" text-anchor="middle" font-size="13" font-weight="600" fill="#712B13">CategoryScore</text>
<text x="348" y="729.0" font-size="11" fill="#712B13">+string category</text>
<text x="348" y="746.0" font-size="11" fill="#712B13">+number score</text>
<text x="348" y="763.0" font-size="11" fill="#712B13">+number weight</text>
<text x="348" y="780.0" font-size="11" fill="#712B13">+string status</text>
<rect x="630" y="677.0" width="190" height="116" rx="6" fill="#FAECE7" stroke="#993C1D" stroke-width="0.8"/>
<line x1="630" y1="715.0" x2="820" y2="715.0" stroke="#993C1D" stroke-width="0.3"/>
<text x="725.0" y="690.0" text-anchor="middle" font-size="9" fill="#993C1D" font-style="italic">«interface»</text>
<text x="725.0" y="707.0" text-anchor="middle" font-size="13" font-weight="600" fill="#712B13">Recommendation</text>
<text x="638" y="729.0" font-size="11" fill="#712B13">+string label</text>
<text x="638" y="746.0" font-size="11" fill="#712B13">+string description</text>
<text x="638" y="763.0" font-size="11" fill="#712B13">+string severity</text>
<text x="638" y="780.0" font-size="11" fill="#712B13">+string[] actions</text>
<rect x="340.0" y="881.0" width="190" height="99" rx="6" fill="#FAECE7" stroke="#993C1D" stroke-width="0.8"/>
<line x1="340.0" y1="919.0" x2="530.0" y2="919.0" stroke="#993C1D" stroke-width="0.3"/>
<text x="435.0" y="894.0" text-anchor="middle" font-size="9" fill="#993C1D" font-style="italic">«interface»</text>
<text x="435.0" y="911.0" text-anchor="middle" font-size="13" font-weight="600" fill="#712B13">ScoringConfig</text>
<text x="348.0" y="933.0" font-size="11" fill="#712B13">+ThresholdConfig cop</text>
<text x="348.0" y="950.0" font-size="11" fill="#712B13">+ThresholdConfig energy</text>
<text x="348.0" y="967.0" font-size="11" fill="#712B13">+ThresholdConfig temperature</text>
<line x1="385.0" y1="89.0" x2="485.0" y2="89.0" stroke="#666" stroke-width="1" marker-end="url(#a)"/>
<text x="435.0" y="77.0" text-anchor="middle" font-size="10" fill="#888">contains</text>
<text x="393.0" y="103.0" font-size="9" fill="#666">1</text>
<text x="469.0" y="103.0" font-size="9" fill="#666">*</text>
<line x1="240" y1="284.5" x2="340" y2="284.5" stroke="#666" stroke-width="1" marker-end="url(#a)"/>
<text x="290.0" y="272.5" text-anchor="middle" font-size="10" fill="#888">has</text>
<text x="248" y="298.5" font-size="9" fill="#666">1</text>
<text x="324" y="298.5" font-size="9" fill="#666">*</text>
<line x1="530" y1="284.5" x2="630" y2="284.5" stroke="#666" stroke-width="1" marker-end="url(#a)"/>
<text x="580.0" y="272.5" text-anchor="middle" font-size="10" fill="#888">isMeasuredIn</text>
<text x="538" y="298.5" font-size="9" fill="#666">1</text>
<text x="614" y="298.5" font-size="9" fill="#666">1</text>
<line x1="530" y1="514.0" x2="630" y2="514.0" stroke="#666" stroke-width="1" marker-end="url(#a)"/>
<text x="580.0" y="502.0" text-anchor="middle" font-size="10" fill="#888">aggregates</text>
<text x="538" y="528.0" font-size="9" fill="#666">1</text>
<text x="614" y="528.0" font-size="9" fill="#666">*</text>
<line x1="240" y1="735.0" x2="340" y2="735.0" stroke="#666" stroke-width="1" marker-end="url(#a)"/>
<text x="290.0" y="723.0" text-anchor="middle" font-size="10" fill="#888">scored by</text>
<text x="248" y="749.0" font-size="9" fill="#666">1</text>
<text x="324" y="749.0" font-size="9" fill="#666">*</text>
<path d="M50 514.0 L30 514.0 L30 284.5 L50 284.5" fill="none" stroke="#666" stroke-width="1" marker-end="url(#a)"/>
<text x="24" y="403.25" text-anchor="end" font-size="10" fill="#888">contains</text>
<text x="44" y="508.0" font-size="9" fill="#666">1</text>
<text x="44" y="278.5" font-size="9" fill="#666">*</text>
<path d="M820 514.0 L840 514.0 L840 284.5 L820 284.5" fill="none" stroke="#666" stroke-width="1" marker-end="url(#a)"/>
<text x="846" y="403.25" font-size="10" fill="#888">measured in</text>
<text x="826" y="508.0" font-size="9" fill="#666">1</text>
<text x="826" y="278.5" font-size="9" fill="#666">1</text>
<path d="M202.0 776.0 L202.0 821.0 L668.0 821.0 L668.0 793.0" fill="none" stroke="#666" stroke-width="1" marker-end="url(#a)"/>
<text x="435.0" y="813.0" text-anchor="middle" font-size="10" fill="#888">produces</text>
<text x="210.0" y="790.0" font-size="9" fill="#666">1</text>
<text x="676.0" y="807.0" font-size="9" fill="#666">1</text>
<line x1="387.5" y1="589.0" x2="192.5" y2="694.0" stroke="#aaa" stroke-width="1" stroke-dasharray="5 3" marker-end="url(#ad)"/>
<text x="180.5" y="645.5" text-anchor="end" font-size="10" fill="#aaa">input for</text>
<line x1="387.5" y1="881.0" x2="145.0" y2="776.0" stroke="#aaa" stroke-width="1" stroke-dasharray="5 3" marker-end="url(#ad)"/>
<text x="133.0" y="832.5" text-anchor="end" font-size="10" fill="#aaa">configures</text>
<rect x="50" y="1060" width="10" height="10" rx="2" fill="#E6F1FB" stroke="#185FA5" stroke-width="0.5"/>
<text x="64" y="1069" font-size="10" fill="#888">API</text>
<rect x="100" y="1060" width="10" height="10" rx="2" fill="#E1F5EE" stroke="#0F6E56" stroke-width="0.5"/>
<text x="114" y="1069" font-size="10" fill="#888">Domain</text>
<rect x="170" y="1060" width="10" height="10" rx="2" fill="#EEEDFE" stroke="#534AB7" stroke-width="0.5"/>
<text x="184" y="1069" font-size="10" fill="#888">Aggregation</text>
<rect x="270" y="1060" width="10" height="10" rx="2" fill="#FAECE7" stroke="#993C1D" stroke-width="0.5"/>
<text x="284" y="1069" font-size="10" fill="#888">Decision</text>
<line x1="360" y1="1065" x2="385" y2="1065" stroke="#666" stroke-width="1" marker-end="url(#a)"/>
<text x="390" y="1069" font-size="10" fill="#888">Association</text>
<line x1="475" y1="1065" x2="500" y2="1065" stroke="#aaa" stroke-width="1" stroke-dasharray="5 3" marker-end="url(#ad)"/>
<text x="505" y="1069" font-size="10" fill="#888">Dependency</text>
<text x="605" y="1069" font-size="10" fill="#888">1 = one  |  * = many</text>
</svg>